<?xml version="1.0" standalone="no"?>
<!DOCTYPE svg PUBLIC "-//W3C//DTD SVG 20010904//EN"
 "http://www.w3.org/TR/2001/REC-SVG-20010904/DTD/svg10.dtd">
<svg version="1.0" xmlns="http://www.w3.org/2000/svg"
 width="1080.000000pt" height="315.000000pt" viewBox="0 0 1080.000000 315.000000"
 preserveAspectRatio="xMidYMid meet">

<g transform="translate(0.000000,315.000000) scale(0.100000,-0.100000)"
fill="#000000" stroke="none">
<path d="M2387 2239 c-10 -6 -15 -14 -12 -20 8 -12 52 -12 60 0 9 16 -28 31
-48 20z"/>
<path d="M3434 1996 c-3 -8 -1 -23 5 -33 9 -16 10 -16 11 -1 0 9 3 23 6 32 3
9 1 16 -5 16 -7 0 -14 -6 -17 -14z"/>
<path d="M3465 1890 c3 -5 12 -7 20 -3 21 7 19 13 -6 13 -11 0 -18 -4 -14 -10z"/>
<path d="M2003 1813 c-14 -5 -18 -33 -5 -33 4 0 14 5 22 10 17 11 2 30 -17 23z"/>
</g>
</svg>
